<?xml version="1.0"?>
<svg xmlns="http://www.w3.org/2000/svg" height="512px" viewBox="0 0 496 496.01407" width="512px"><path d="m408.007812 272.015625c-23.90625 0-45.585937 12.230469-61.464843 31.992187-4.480469-3.425781-9.351563-6.21875-14.464844-8.523437l-26.359375-105.566406c8.398438-3.742188 14.289062-12.136719 14.289062-21.902344v-16c0-9.480469-5.570312-17.617187-13.570312-21.511719 16.824219-20.128906 18.242188-47.59375 2.457031-63.378906-6.480469-6.480469-14.933593-10.039062-24.039062-10.839844 5.960937-16.597656 3.351562-33.847656-7.960938-45.160156-16.886719-16.886719-47.191406-14.101562-67.535156 6.25-10.121094 10.117188-16.007813 22.917969-17.074219 35.453125-7.351562-3.054687-15.566406-4.8125-24.277344-4.8125-8.710937 0-16.9375 1.757813-24.296874 4.8125-1.0625-12.550781-6.96875-25.375-17.0625-35.460937-9.625-9.625-21.761719-15.679688-34.175782-17.066407-13.113281-1.453125-24.9375 2.386719-33.363281 10.816407-11.277344 11.28125-13.894531 28.554687-7.941406 45.152343-9.105469.816407-17.570313 4.367188-24.050781 10.855469-15.78125 15.785156-14.367188 43.25 2.457031 63.378906-8 3.894532-13.566407 12.03125-13.566407 21.511719v16c0 9.765625 5.886719 18.160156 14.277344 21.894531l-26.636718 106.550782c-2.417969 9.679687-3.6406255 19.632812-3.6406255 29.585937 0 67.253906 54.7109375 121.96875 121.9609375 121.96875l51.277344.046875c3.640625 9.472656 9.25 17.925781 17.015625 25.695312 14.921875 14.921876 35.167969 22.152344 57 22.152344 29.953125 0 62.867187-13.632812 88.945312-39.703125.921875-.921875 1.847657-1.960937 2.777344-2.945312 16.117187 25.984375 41.039063 42.753906 69.023437 42.753906 48.519532 0 88-50.242187 88-112 0-61.761719-39.480468-112-88-112zm-368-96c-4.410156 0-8-3.59375-8-8v-16c0-4.410156 3.589844-8 8-8h256c4.40625 0 8 3.589844 8 8v16c0 4.40625-3.59375 8-8 8zm4.664063-52.664063c-7.066406-7.066406-11.496094-15.816406-12.472656-24.632812-.542969-4.929688.175781-9.433594 1.816406-13.375l42.679687 42.671875h-26.289062c-2.191406-1.546875-4.121094-3.066406-5.734375-4.664063zm21.277344-94.074218 48.761719 48.761718c-4.335938 1.808594-9.375 2.285157-14.742188 1.472657-1.632812-2.121094-3.371094-4.1875-5.328125-6.144531-7.371094-7.367188-16.058594-12.410157-24.929687-15.066407-5.953126-9.964843-7.246094-20.742187-3.761719-29.023437zm204.074219.03125c3.40625 8.296875 2.113281 19.160156-3.746094 28.992187-8.871094 2.664063-17.542969 7.699219-24.910156 15.066407-1.960938 1.957031-3.703126 4.03125-5.328126 6.152343-5.367187.816407-10.417968.328125-14.742187-1.472656zm33.792968 69.402344c-.984375 8.824218-5.410156 17.566406-12.472656 24.632812-1.609375 1.605469-3.542969 3.125-5.738281 4.671875h-26.285157l42.671876-42.671875c1.648437 3.933594 2.367187 8.4375 1.824218 13.367188zm-79.808594-2.695313c0-.21875-.03125-.433594-.039062-.648437 1.039062.175781 2.09375.285156 3.160156.382812-3.898437 11.015625-4.042968 22.464844-.28125 32.265625h-17.226562c8.914062-8.503906 14.386718-19.699219 14.386718-32zm18.007813 26.679687c-4.664063-11.113281-.824219-26.527343 10.664063-38.015624 7.0625-7.066407 15.816406-11.496094 24.632812-12.472657 4.917969-.554687 9.421875.175781 13.375 1.816407zm-74.007813 5.320313c-21.65625 0-39.25-13.867187-39.878906-31.066406 4.527344 1.152343 7.742188 3.25 11.4375 5.722656 6.25 4.167969 14.015625 9.34375 28.441406 9.34375 14.421876 0 22.191407-5.175781 28.4375-9.34375 3.707032-2.472656 6.921876-4.570313 11.441407-5.722656-.632813 17.199219-18.222657 31.066406-39.878907 31.066406zm-59.121093-32.257813c1.0625-.097656 2.121093-.207031 3.160156-.382812-.007813.214844-.039063.421875-.039063.640625 0 12.300781 5.472657 23.496094 14.375 32h-17.222656c3.765625-9.792969 3.613282-21.25-.273437-32.257813zm-25.542969-11.078124c11.632812 11.636718 15.4375 27.300781 10.808594 38.160156l-48.816406-48.816406c3.941406-1.648438 8.445312-2.371094 13.375-1.816407 8.816406.984375 17.566406 5.414063 24.632812 12.472657zm137.328125-56c7.0625-7.066407 15.816406-11.496094 24.632813-12.472657 4.917968-.554687 9.421874.175781 13.375 1.816407l-47.472657 47.480468c-.742187-.777344-1.558593-1.488281-2.351562-2.226562-2.6875-10.992188 1.863281-24.640625 11.816406-34.597656zm-17.160156 52.902343c-6.960938 1.847657-11.808594 5.015625-15.9375 7.777344-5.582031 3.71875-9.992188 6.65625-19.566407 6.65625-9.578124 0-13.984374-2.9375-19.5625-6.65625-4.125-2.753906-8.980468-5.929687-15.933593-7.777344 6.617187-10.375 19.960937-17.566406 35.496093-17.566406 15.535157 0 28.878907 7.191406 35.503907 17.566406zm-112.808594-65.375c8.824219.984375 17.566406 5.40625 24.632813 12.472657 9.917968 9.917968 14.503906 23.597656 11.832031 34.589843-.800781.738281-1.617188 1.457031-2.367188 2.234375l-47.472656-47.472656c3.949219-1.648438 8.453125-2.371094 13.375-1.824219zm-71.527344 284.136719 27.078125-108.328125h243.503906l24.464844 97.847656c-13.335937-2.570312-27.734375-2.058593-42.214844 1.351563v-83.199219h-208v160h115.40625c-2.472656 5.253906-4.519531 10.597656-6.207031 16h-139.832031c-10.945312-16.671875-17.367188-36.578125-17.367188-57.96875 0-8.648437 1.0625-17.296875 3.167969-25.703125zm169.207031 51.671875h-108.375v-128h176v72.152344c-17.066406 6.589843-33.695312 17.167969-48.183593 31.652343-7.503907 7.503907-13.929688 15.671876-19.441407 24.195313zm-3.382812 80.054687-63.023438-.054687c-29.664062 0-56.480468-12.289063-75.738281-32h123.234375c-.851562 5.335937-1.449218 10.671875-1.464844 15.964844l16 .066406c.09375-26.648437 12.902344-54.671875 35.128907-76.90625 36.390625-36.375 87.414062-45.558594 117.628906-22.453125-14.144531 2.453125-30.078125 5.726562-47.917969 23.566406-18.519531 18.519532-21.367187 35.007813-23.878906 49.558594-2.410156 13.96875-4.488281 26.035156-19.425781 40.96875-14.9375 14.9375-27 17.007812-40.96875 19.425781-3.589844.621094-7.3125 1.351563-11.09375 2.222657-2.984375-4.558594-5.296875-9.375-6.808594-14.589844zm139.878906 12.816407c-37.015625 37.007812-88.9375 45.824219-118.976562 21.335937.472656-.082031.921875-.175781 1.402344-.257812 14.542968-2.511719 31.03125-5.351563 49.550781-23.878906 18.519531-18.527344 21.367187-35.007813 23.878906-49.558594 2.410156-13.96875 4.488281-26.035156 19.425781-40.96875 10.535156-10.535156 19.648438-14.632813 29.007813-16.992188-5.808594 14.945313-9.160157 31.6875-9.160157 49.449219 0 19.628906 4.015626 38.078125 11.015626 54.132813-2.121094 2.472656-4.160157 4.753906-6.144532 6.738281zm11.128906-60.871094c0-50.074219 28.917969-91.265625 65.648438-95.570313-.066406.089844-.121094.175782-.183594.265626-8.1875 11.589843-17.464844 24.726562-17.464844 49.925781 0 25.210937 9.277344 38.351562 17.464844 49.960937 7.796875 11.046875 14.535156 20.59375 14.535156 40.726563 0 20.136719-6.738281 29.683593-14.535156 40.730469-1.898437 2.695312-3.808594 5.519531-5.671875 8.472656-33.898437-7.769532-59.792969-47.136719-59.792969-94.511719zm78.328126 95.574219c.070312-.105469.136718-.199219.207031-.304688 8.183593-11.597656 17.464843-24.75 17.464843-49.960937 0-25.207031-9.28125-38.351563-17.464843-49.957031-7.800781-11.050782-14.535157-20.59375-14.535157-40.730469 0-20.117188 6.734376-29.65625 14.535157-40.703125 1.894531-2.679688 3.792969-5.496094 5.65625-8.441406 33.902343 7.769531 59.808593 47.144531 59.808593 94.523437 0 50.085937-28.929687 91.277344-65.671874 95.574219zm0 0" fill="#854442"/><path d="m168.007812 240.015625c-22.058593 0-40 21.527344-40 48 0 26.46875 17.941407 48 40 48 22.054688 0 40-21.53125 40-48 0-26.472656-17.945312-48-40-48zm-24 48c0-13.890625 6.710938-25.617187 16-30.035156v60.074219c-9.289062-4.425782-16-16.152344-16-30.039063zm32 30.03125v-60.074219c9.289063 4.417969 16 16.144532 16 30.035156 0 13.886719-6.710937 25.621094-16 30.039063zm0 0" fill="#854442"/></svg>
