<?xml version="1.0"?>
<svg xmlns="http://www.w3.org/2000/svg" height="512px" viewBox="-24 0 496 496" width="512px"><path d="m48 320h-16c0 79.398438 64.601562 144 144 144v-16c-70.574219 0-128-57.425781-128-128zm0 0" fill="#854442"/><path d="m242.59375 67.433594c-4.464844 4.09375-10.59375 9.71875-10.59375 20.566406h16c0-3.671875 1.558594-5.246094 5.40625-8.777344 4.464844-4.09375 10.59375-9.71875 10.59375-20.574218 0-10.847657-6.128906-16.472657-10.59375-20.570313-3.847656-3.527344-5.40625-5.101563-5.40625-8.773437 0-3.664063 1.558594-5.234376 5.40625-8.761719 4.464844-4.085938 10.59375-9.703125 10.59375-20.542969h-16c0 3.65625-1.558594 5.222656-5.398438 8.753906-4.472656 4.085938-10.601562 9.703125-10.601562 20.550782 0 10.847656 6.128906 16.472656 10.59375 20.566406 3.847656 3.527344 5.40625 5.105468 5.40625 8.777344 0 3.679687-1.558594 5.253906-5.40625 8.785156zm0 0" fill="#854442"/><path d="m194.59375 67.433594c-4.464844 4.09375-10.59375 9.71875-10.59375 20.566406h16c0-3.671875 1.558594-5.246094 5.40625-8.777344 4.464844-4.09375 10.59375-9.71875 10.59375-20.574218 0-10.847657-6.128906-16.472657-10.59375-20.570313-3.847656-3.527344-5.40625-5.101563-5.40625-8.773437 0-3.664063 1.558594-5.234376 5.40625-8.761719 4.464844-4.085938 10.59375-9.703125 10.59375-20.542969h-16c0 3.65625-1.558594 5.222656-5.398438 8.753906-4.472656 4.085938-10.601562 9.703125-10.601562 20.550782 0 10.847656 6.128906 16.472656 10.59375 20.566406 3.847656 3.527344 5.40625 5.105468 5.40625 8.777344 0 3.679687-1.558594 5.253906-5.40625 8.785156zm0 0" fill="#854442"/><path d="m146.59375 67.433594c-4.464844 4.09375-10.59375 9.71875-10.59375 20.566406h16c0-3.671875 1.558594-5.246094 5.40625-8.777344 4.464844-4.09375 10.59375-9.71875 10.59375-20.574218 0-10.847657-6.128906-16.472657-10.59375-20.570313-3.847656-3.527344-5.40625-5.101563-5.40625-8.773437 0-3.664063 1.558594-5.234376 5.40625-8.761719 4.464844-4.085938 10.59375-9.703125 10.59375-20.542969h-16c0 3.65625-1.558594 5.222656-5.398438 8.753906-4.472656 4.085938-10.601562 9.703125-10.601562 20.550782 0 10.847656 6.128906 16.472656 10.59375 20.566406 3.847656 3.527344 5.40625 5.105468 5.40625 8.777344 0 3.679687-1.558594 5.253906-5.40625 8.785156zm0 0" fill="#854442"/><path d="m98.59375 67.433594c-4.464844 4.09375-10.59375 9.71875-10.59375 20.566406h16c0-3.671875 1.558594-5.246094 5.40625-8.777344 4.464844-4.09375 10.59375-9.71875 10.59375-20.574218 0-10.847657-6.128906-16.472657-10.59375-20.570313-3.847656-3.527344-5.40625-5.101563-5.40625-8.773437 0-3.664063 1.558594-5.234376 5.40625-8.761719 4.464844-4.085938 10.59375-9.703125 10.59375-20.542969h-16c0 3.65625-1.558594 5.222656-5.398438 8.753906-4.472656 4.085938-10.601562 9.703125-10.601562 20.550782 0 10.847656 6.128906 16.472656 10.59375 20.566406 3.847656 3.527344 5.40625 5.105468 5.40625 8.777344 0 3.679687-1.558594 5.253906-5.40625 8.785156zm0 0" fill="#854442"/><path d="m409.304688 181.207031c-29.480469-33.808593-73.511719-53.207031-120.808594-53.207031h-1.640625c-2.855469-9.289062-11.121094-16.3125-21.253907-16.976562l-233.601562-15.574219v19.359375l32 40.007812v31.65625c-40.28125 34.121094-64 83.046875-64 133.527344 0 97.046875 78.953125 176 176 176s176-78.953125 176-176c0-47.761719-21.207031-94.152344-57.601562-127.910156 35.890624.949218 67.136718 21.863281 81.929687 55.148437 5.097656 11.449219 7.671875 24.601563 7.671875 39.097657v65.664062c0 17.648438 14.351562 32 32 32s32-14.351562 32-32v-67.839844c0-37.761718-13.742188-74.328125-38.695312-102.953125zm-329.304688-5.207031v-16h192v16zm184.535156-49.007812c4.183594.273437 7.464844 3.785156 7.464844 7.976562v9.03125h-196.152344l-25.015625-31.257812zm-88.535156 353.007812c-88.222656 0-160-71.777344-160-160 0-19.078125 3.777344-37.9375 10.808594-55.695312 6.984375 4.421874 15.550781 7.695312 27.566406 7.695312 20.6875 0 31.257812-9.601562 40.578125-18.078125 8.550781-7.785156 15.3125-13.921875 29.824219-13.921875 14.496094 0 21.253906 6.144531 29.808594 13.921875 9.316406 8.46875 19.878906 18.078125 40.566406 18.078125 20.695312 0 31.261718-9.601562 40.589844-18.078125 8.554687-7.785156 15.320312-13.921875 29.832031-13.921875 14.515625 0 21.273437 6.144531 29.832031 13.921875 7.96875 7.238281 16.9375 15.292969 32.363281 17.460937 5.351563 15.664063 8.230469 32.050782 8.230469 48.617188 0 88.222656-71.777344 160-160 160zm143.847656-227.617188c-5.09375-2.574218-9.230468-6.261718-13.671875-10.304687-9.335937-8.476563-19.902343-18.078125-40.601562-18.078125-20.703125 0-31.269531 9.609375-40.597657 18.078125-8.550781 7.777344-15.3125 13.921875-29.824218 13.921875-14.496094 0-21.257813-6.144531-29.808594-13.921875-9.320312-8.46875-19.878906-18.078125-40.566406-18.078125-20.699219 0-31.265625 9.609375-40.585938 18.078125-8.558594 7.777344-15.320312 13.921875-29.816406 13.921875-8.96875 0-15.09375-2.425781-20.824219-6.449219 11.449219-22.078125 28.175781-41.878906 49.160157-57.550781h186.578124c21.878907 16.335938 39.09375 37.167969 50.558594 60.382812zm112.152344 99.617188c0 8.824219-7.175781 16-16 16s-16-7.175781-16-16v-65.664062c0-16.75-3.046875-32.089844-9.046875-45.59375-17.761719-39.933594-55.738281-64.742188-99.113281-64.742188h-3.839844v-32h.496094c42.671875 0 82.3125 17.398438 108.75 47.726562 22.410156 25.714844 34.753906 58.53125 34.753906 92.433594zm0 0" fill="#854442"/></svg>
