<?xml version="1.0" encoding="iso-8859-1"?>
<!-- Generator: Adobe Illustrator 19.0.0, SVG Export Plug-In . SVG Version: 6.00 Build 0)  -->
<svg xmlns="http://www.w3.org/2000/svg" xmlns:xlink="http://www.w3.org/1999/xlink" version="1.1" id="Layer_1" x="0px" y="0px" viewBox="0 0 512 512" style="enable-background:new 0 0 512 512;" xml:space="preserve" width="512px" height="512px">
<g id="XMLID_146_">
	<g id="XMLID_147_">
		<g id="XMLID_148_">
			<path id="XMLID_149_" d="M476.439,491.693l-16.071-97.649c-0.673-4.087-4.534-6.855-8.618-6.183     c-4.087,0.673-6.855,4.531-6.183,8.618l16.071,97.649c0.162,0.981-0.278,1.674-0.554,2c-0.276,0.325-0.888,0.871-1.883,0.871     h-98.232V351.778h25.934c3.897,0,7.489-1.776,9.854-4.875c2.365-3.098,3.132-7.031,2.104-10.79l-8.814-32.243     c-1.469-5.374-6.386-9.127-11.958-9.127h-9.436v-2.951c0-5.167-3.18-9.602-7.684-11.46V68.871h30.679l48.236,293.085     c0.605,3.675,3.785,6.283,7.391,6.283c0.405,0,0.815-0.032,1.227-0.101c4.087-0.673,6.855-4.531,6.183-8.618L406.85,68.871h4.151     c9.97,0,18.082-8.111,18.082-18.082V28.55c0-9.97-8.111-18.081-18.082-18.081h-50.74c-4.142,0-7.5,3.357-7.5,7.5     s3.358,7.5,7.5,7.5h50.74c1.699,0,3.082,1.382,3.082,3.081v22.239c0,1.699-1.382,3.082-3.082,3.082H305.416V25.469h20.323     c4.142,0,7.5-3.357,7.5-7.5s-3.358-7.5-7.5-7.5h-21.798C301.236,4.314,295.089,0,287.946,0h-63.893     c-7.143,0-13.29,4.314-15.995,10.469h-107.06c-9.97,0-18.082,8.111-18.082,18.081v22.239c0,9.971,8.111,18.082,18.082,18.082     h4.151L87.762,174.521c-0.673,4.087,2.095,7.945,6.183,8.618c0.413,0.068,0.822,0.101,1.227,0.101     c3.606,0,6.787-2.608,7.391-6.283l17.789-108.085h30.679v211.46c-4.504,1.859-7.684,6.293-7.684,11.46v2.951h-9.436     c-5.572,0-10.489,3.753-11.957,9.127l-8.815,32.243c-1.028,3.759-0.261,7.692,2.104,10.79c2.365,3.099,5.956,4.875,9.854,4.875     h25.934V497H52.799c-0.995,0-1.606-0.546-1.883-0.871c-0.276-0.326-0.716-1.019-0.554-2l46.519-282.649     c0.673-4.087-2.095-7.945-6.183-8.618c-4.084-0.679-7.946,2.096-8.618,6.183L35.561,491.693     c-0.834,5.07,0.594,10.226,3.92,14.143C42.806,509.753,47.66,512,52.799,512h406.402c5.139,0,9.993-2.247,13.318-6.164     C475.845,501.919,477.273,496.764,476.439,491.693z M158.347,315.966v-21.57h195.306v21.57H158.347z M376.101,309.743     l7.391,27.035h-22.522v-6.749c4.504-1.859,7.684-6.293,7.684-11.46v-8.826H376.101z M221.584,17.47c0-1.361,1.108-2.47,2.47-2.47     h63.893c1.362,0,2.47,1.108,2.47,2.47v105.539l-26.455-19.464c-4.763-3.504-11.162-3.504-15.922,0l-26.455,19.464V17.47z      M97.917,50.789V28.55c0-1.699,1.382-3.081,3.082-3.081h105.585v28.402H100.999C99.3,53.871,97.917,52.488,97.917,50.789z      M206.584,68.871v57.14c0,5.113,2.834,9.723,7.397,12.03s9.956,1.858,14.074-1.171L256,116.311l27.944,20.56     c2.371,1.744,5.165,2.634,7.979,2.634c2.074,0,4.16-0.483,6.096-1.463c4.563-2.308,7.397-6.917,7.397-12.03v-57.14h40.553     v210.524H166.031V68.871H206.584z M128.508,336.778l7.391-27.035h7.448v8.826c0,5.167,3.18,9.602,7.684,11.46v6.749H128.508z      M166.031,330.966h179.938V497H166.031V330.966z" fill="#854442"/>
			<path id="XMLID_158_" d="M244.267,249.967c12.94,0,27.323-6.02,38.775-17.472c19.509-19.51,23.25-47.513,8.338-62.424     c-14.911-14.91-42.913-11.171-62.422,8.338c-19.509,19.51-23.25,47.513-8.338,62.424     C226.777,246.99,235.164,249.967,244.267,249.967z M272.436,221.888c-10.647,10.646-24.709,15.244-34.521,12.256l46.777-46.777     C287.68,197.179,283.082,211.242,272.436,221.888z M239.564,189.017c8.509-8.509,19.201-13.158,28.161-13.158     c2.25,0,4.381,0.313,6.35,0.912l-46.768,46.767C224.32,213.726,228.918,199.663,239.564,189.017z" fill="#854442"/>
			<path id="XMLID_162_" d="M246.375,392.757h19.251c4.142,0,7.5-3.357,7.5-7.5s-3.358-7.5-7.5-7.5h-19.251     c-4.142,0-7.5,3.357-7.5,7.5S242.232,392.757,246.375,392.757z" fill="#854442"/>
			<path id="XMLID_163_" d="M290.732,405.098h-69.464c-4.142,0-7.5,3.357-7.5,7.5s3.358,7.5,7.5,7.5h69.464     c4.142,0,7.5-3.357,7.5-7.5S294.874,405.098,290.732,405.098z" fill="#854442"/>
			<path id="XMLID_164_" d="M265.625,456.289h-19.251c-4.142,0-7.5,3.357-7.5,7.5s3.358,7.5,7.5,7.5h19.251     c4.142,0,7.5-3.357,7.5-7.5S269.768,456.289,265.625,456.289z" fill="#854442"/>
		</g>
	</g>
</g>















</svg>
